<?xml version="1.0" encoding="iso-8859-1"?>
<!-- Generator: Adobe Illustrator 16.0.0, SVG Export Plug-In . SVG Version: 6.00 Build 0)  -->
<!DOCTYPE svg PUBLIC "-//W3C//DTD SVG 1.1//EN" "http://www.w3.org/Graphics/SVG/1.1/DTD/svg11.dtd">
<svg version="1.1" id="Capa_1" xmlns="http://www.w3.org/2000/svg" xmlns:xlink="http://www.w3.org/1999/xlink" x="0px" y="0px"
	 viewBox="0 0 485.213 485.212" style="enable-background:new 0 0 485.213 485.212;"
	 xml:space="preserve">
<g>
	<path d="M242.606,0C159.005,0,90.978,68.027,90.978,151.628c0,37.584,17.119,71.966,33.703,105.191
		c13.859,27.867,26.948,54.166,26.948,76.765c0,16.759,13.565,30.321,30.327,30.321h121.3c16.765,0,30.331-13.562,30.331-30.321
		c0-23.724,13.231-50.139,27.271-78.062c16.409-32.699,33.379-66.52,33.379-103.894C394.235,68.027,326.208,0,242.606,0z
		 M303.255,333.584H257.77v-90.979c0-8.379-6.781-15.161-15.163-15.161c-8.382,0-15.164,6.781-15.164,15.161v90.979h-45.488
		c0-59.706-60.651-121.303-60.651-181.956c0-66.989,54.313-121.302,121.302-121.302c66.991,0,121.302,54.313,121.302,121.302
		C363.908,212.282,303.255,271.988,303.255,333.584z M288.097,197.119c0,8.38-6.781,15.163-15.164,15.163h-60.65
		c-8.385,0-15.166-6.783-15.166-15.163c0-8.382,6.781-15.164,15.166-15.164h60.65C281.315,181.955,288.097,188.736,288.097,197.119z
		 M288.097,151.628c0,8.38-6.781,15.166-15.164,15.166h-60.65c-8.385,0-15.166-6.786-15.166-15.166s6.781-15.161,15.166-15.161
		h60.65C281.315,136.467,288.097,143.249,288.097,151.628z M303.255,409.396c8.382,0,15.168,6.786,15.168,15.163
		c0,8.383-6.786,15.168-15.168,15.168c8.382,0,15.168,6.777,15.168,15.159c0,8.377-6.786,15.163-15.168,15.163h-30.322
		c-7.163,9.535-18.388,15.163-30.326,15.163c-11.936,0-23.161-5.628-30.324-15.163h-30.327c-8.379,0-15.161-6.786-15.161-15.163
		c0-8.382,6.781-15.159,15.161-15.159c-8.379,0-15.161-6.785-15.161-15.168c0-8.377,6.781-15.163,15.161-15.163
		c-8.379,0-15.161-6.776-15.161-15.159c0-8.382,6.781-15.163,15.161-15.163h121.3c8.382,0,15.168,6.781,15.168,15.163
		C318.423,402.62,311.637,409.396,303.255,409.396z"/>
</g>
<g>
</g>
<g>
</g>
<g>
</g>
<g>
</g>
<g>
</g>
<g>
</g>
<g>
</g>
<g>
</g>
<g>
</g>
<g>
</g>
<g>
</g>
<g>
</g>
<g>
</g>
<g>
</g>
<g>
</g>
</svg>
